<svg class="logo" xmlns="http://www.w3.org/2000/svg" xmlns:xlink="http://www.w3.org/1999/xlink" version="1.1" x="0px" y="0px" width="240px" height="66px" viewBox="0 0 240 66" enable-background="new 0 0 240 66" xml:space="preserve">
  <g id="Layer_1">
    <g>
      <path fill="#FFFFFF" d="M31.519,17.877l8.833,21.257H22.685L31.519,17.877z M25.189,5.119L0.432,60.881h13.215l4.966-11.949    h25.813l4.964,11.949h13.534L37.928,5.119H25.189z"></path>
      <g>
        <g>
          <rect id="SVGID_1_" x="0.432" y="4.163" fill="#FFFFFF" width="239.136" height="57.674"></rect>
        </g>
        <g>
          <defs>
            <rect id="SVGID_2_" x="0.432" y="4.163" width="239.136" height="57.674"></rect>
          </defs>
          <clipPath id="SVGID_3_">
            <use xlink:href="#SVGID_2_" overflow="visible"></use>
          </clipPath>
          <path clip-path="url(#SVGID_3_)" fill="#FFFFFF" d="M105.353,42.919c3.609-1.565,6.395-3.851,8.358-6.853      c1.963-3,2.946-6.599,2.946-10.793c0-4.142-0.982-7.727-2.946-10.754s-4.749-5.35-8.358-6.972      c-3.609-1.619-7.907-2.429-12.895-2.429H68.336V60.88h12.976V45.27h11.146c0.191,0,0.365-0.022,0.556-0.023l10.826,15.636      h13.853l-12.42-17.935C105.298,42.938,105.327,42.93,105.353,42.919 M100.656,18.144c2.016,1.672,3.025,4.049,3.025,7.13      c0,3.08-1.01,5.471-3.025,7.169c-2.018,1.702-4.99,2.548-8.916,2.548H81.312V15.635H91.74      C95.666,15.635,98.639,16.471,100.656,18.144"></path>
        </g>
        <g>
          <defs>
            <rect id="SVGID_4_" x="0.432" y="4.163" width="239.136" height="57.674"></rect>
          </defs>
          <clipPath id="SVGID_5_">
            <use xlink:href="#SVGID_4_" overflow="visible"></use>
          </clipPath>
          <path clip-path="url(#SVGID_5_)" fill="#FFFFFF" d="M141.096,20.095c1.592-1.592,3.478-2.827,5.653-3.704      c2.174-0.876,4.563-1.313,7.162-1.313c2.759,0,5.321,0.557,7.682,1.672c2.361,1.116,4.472,2.761,6.33,4.939l8.359-7.648      c-2.655-3.238-5.945-5.696-9.872-7.368c-3.93-1.673-8.309-2.51-13.135-2.51c-4.299,0-8.293,0.705-11.979,2.112      c-3.69,1.408-6.899,3.412-9.635,6.013c-2.731,2.604-4.854,5.656-6.367,9.162c-1.513,3.504-2.271,7.355-2.271,11.552      c0,4.193,0.758,8.044,2.271,11.55c1.513,3.505,3.623,6.56,6.328,9.16c2.707,2.604,5.901,4.608,9.593,6.015      c3.688,1.408,7.682,2.11,11.98,2.11c4.883,0,9.285-0.851,13.215-2.549c3.927-1.699,7.217-4.168,9.872-7.409l-8.359-7.646      c-1.858,2.181-3.969,3.838-6.329,4.979c-2.361,1.145-4.924,1.714-7.683,1.714c-2.601,0-4.988-0.437-7.162-1.313      c-2.177-0.879-4.063-2.111-5.653-3.704c-1.592-1.593-2.826-3.478-3.701-5.657c-0.877-2.177-1.313-4.591-1.313-7.246      c0-2.656,0.437-5.073,1.313-7.25C138.27,23.574,139.504,21.689,141.096,20.095"></path>
        </g>
        <g>
          <defs>
            <rect id="SVGID_6_" x="0.432" y="4.163" width="239.136" height="57.674"></rect>
          </defs>
          <clipPath id="SVGID_7_">
            <use xlink:href="#SVGID_6_" overflow="visible"></use>
          </clipPath>
          <path clip-path="url(#SVGID_7_)" fill="#FFFFFF" d="M226.034,60.881h13.534L214.57,5.119h-12.735l-24.758,55.762h13.215      l4.964-11.949h25.813L226.034,60.881z M199.329,39.134l8.833-21.257l8.834,21.257H199.329z"></path>
        </g>
      </g>
    </g>
  </g>
  <g id="Layer_2">
    <g>
      <path fill="#242C4F" d="M25.276,5.12L0.543,60.825h13.202l4.958-11.939h25.788l4.958,11.939h13.525L38.001,5.12H25.276z     M22.776,39.096l8.82-21.236l8.82,21.236H22.763H22.776z"></path>
      <path fill="#242C4F" d="M105.364,42.876c3.609-1.562,6.391-3.851,8.357-6.842c1.966-2.992,2.949-6.587,2.949-10.787    c0-4.199-0.983-7.725-2.949-10.745c-1.967-3.02-4.748-5.352-8.357-6.966c-3.61-1.616-7.895-2.43-12.88-2.43H68.382v55.705h12.964    V45.205h11.139c0.196,0,0.365-0.014,0.562-0.026l10.815,15.616h13.835l-12.402-17.919c0,0,0.056-0.016,0.084-0.03L105.364,42.876z     M100.672,18.126c2.01,1.671,3.021,4.045,3.021,7.121c0,3.076-1.012,5.463-3.021,7.164c-2.021,1.7-4.985,2.542-8.904,2.542H81.346    V15.612h10.422c3.919,0,6.896,0.829,8.904,2.5V18.126z"></path>
      <path fill="#242C4F" d="M141.067,20.079c1.588-1.587,3.469-2.823,5.646-3.694c2.177-0.87,4.564-1.306,7.164-1.306    c2.753,0,5.31,0.562,7.667,1.671c2.361,1.11,4.466,2.753,6.321,4.93l8.343-7.641c-2.653-3.23-5.939-5.688-9.86-7.36    c-3.917-1.671-8.299-2.5-13.118-2.5c-4.298,0-8.287,0.703-11.966,2.107c-3.681,1.404-6.897,3.413-9.622,6.012    c-2.724,2.598-4.846,5.646-6.361,9.158c-1.518,3.497-2.263,7.345-2.263,11.546c0,4.198,0.76,8.033,2.263,11.545    c1.516,3.497,3.623,6.56,6.319,9.158c2.697,2.599,5.898,4.605,9.58,6.01c3.679,1.406,7.667,2.107,11.967,2.107    c4.874,0,9.27-0.843,13.201-2.542c3.921-1.699,7.207-4.172,9.86-7.401l-8.343-7.642c-1.855,2.178-3.96,3.835-6.321,4.973    c-2.357,1.137-4.914,1.715-7.667,1.715c-2.6,0-4.987-0.437-7.164-1.309c-2.178-0.869-4.059-2.105-5.646-3.707    s-2.824-3.469-3.693-5.646c-0.871-2.177-1.306-4.593-1.306-7.247c0-2.655,0.435-5.071,1.306-7.248    c0.869-2.177,2.105-4.059,3.693-5.646V20.079z"></path>
      <path fill="#242C4F" d="M225.931,60.825h13.526L214.47,5.12h-12.725L177.01,60.825h13.204l4.957-11.939h25.787l4.959,11.939    H225.931z M199.245,39.096l8.819-21.236l8.82,21.236h-17.655H199.245z"></path>
    </g>
  </g>
</svg>
